<svg width="450" height="450" viewBox="0 0 450 450" fill="none" xmlns="http://www.w3.org/2000/svg">
<rect width="450" height="450" rx="64" fill="#111111"/>
<path d="M240.385 178.09C253.626 213.651 220.564 249.052 184.261 238.186L118.477 218.498C95.635 211.661 81.8255 188.441 86.6995 165.066L88.8893 154.563C90.0765 148.869 92.3319 143.453 95.5357 138.602L104.414 125.158C106.208 122.441 108.286 119.923 110.612 117.646L119.539 108.907C122.448 106.059 125.723 103.612 129.277 101.628L144.126 93.3411C148.456 90.9245 153.149 89.2268 158.021 88.3138L165.828 86.851C187.757 82.7424 209.457 95.0285 217.253 115.966L240.385 178.09Z" fill="#FAFAFA"/>
<path d="M209.615 178.09C196.374 213.651 229.436 249.052 265.739 238.186L331.523 218.498C354.365 211.661 368.175 188.441 363.301 165.066L361.111 154.563C359.923 148.869 357.668 143.453 354.464 138.602L345.586 125.158C343.792 122.441 341.714 119.923 339.388 117.646L330.461 108.907C327.552 106.059 324.277 103.612 320.723 101.628L305.874 93.3411C301.544 90.9245 296.851 89.2268 291.979 88.3138L284.172 86.851C262.243 82.7424 240.543 95.0285 232.747 115.966L209.615 178.09Z" fill="#FAFAFA"/>
<path d="M240.385 271.91C253.626 236.349 220.564 200.948 184.261 211.814L118.477 231.502C95.635 238.339 81.8255 261.559 86.6995 284.934L88.8893 295.437C90.0765 301.131 92.3319 306.547 95.5357 311.398L104.414 324.842C106.208 327.559 108.286 330.077 110.612 332.354L119.539 341.093C122.448 343.941 125.723 346.388 129.277 348.372L144.126 356.659C148.456 359.076 153.149 360.773 158.021 361.686L165.828 363.149C187.757 367.258 209.457 354.972 217.253 334.034L240.385 271.91Z" fill="#FAFAFA"/>
<path d="M209.615 271.91C196.374 236.349 229.436 200.948 265.739 211.814L331.523 231.502C354.365 238.339 368.175 261.559 363.301 284.934L361.111 295.437C359.923 301.131 357.668 306.547 354.464 311.398L345.586 324.842C343.792 327.559 341.714 330.077 339.388 332.354L330.461 341.093C327.552 343.941 324.277 346.388 320.723 348.372L305.874 356.659C301.544 359.076 296.851 360.773 291.979 361.686L284.172 363.149C262.243 367.258 240.543 354.972 232.747 334.034L209.615 271.91Z" fill="#FAFAFA"/>
<path d="M227.897 214.277C230.541 221.366 223.938 228.424 216.688 226.258L204.148 222.511C199.586 221.148 196.828 216.519 197.801 211.859L198.2 209.95C198.437 208.815 198.888 207.736 199.527 206.768L201.25 204.164C201.608 203.623 202.023 203.121 202.488 202.667L204.219 200.975C204.8 200.407 205.454 199.919 206.164 199.524L209.047 197.917C209.912 197.436 210.849 197.097 211.822 196.915L213.218 196.654C217.598 195.835 221.932 198.284 223.489 202.459L227.897 214.277Z" fill="#111111"/>
<path d="M222.045 214.277C219.4 221.366 226.003 228.424 233.254 226.258L245.794 222.511C250.355 221.148 253.113 216.519 252.14 211.859L251.741 209.95C251.504 208.815 251.054 207.736 250.414 206.768L248.691 204.164C248.333 203.623 247.918 203.121 247.454 202.667L245.722 200.975C245.141 200.407 244.487 199.919 243.778 199.524L240.894 197.917C240.029 197.436 239.092 197.097 238.119 196.915L236.723 196.654C232.344 195.835 228.01 198.284 226.453 202.459L222.045 214.277Z" fill="#111111"/>
<path d="M227.897 233.225C230.541 226.136 223.938 219.078 216.688 221.244L204.148 224.991C199.586 226.354 196.828 230.983 197.801 235.643L198.2 237.551C198.437 238.687 198.888 239.766 199.527 240.734L201.25 243.337C201.608 243.879 202.023 244.381 202.488 244.835L204.219 246.527C204.8 247.095 205.454 247.583 206.164 247.978L209.047 249.585C209.912 250.066 210.849 250.405 211.822 250.587L213.218 250.848C217.598 251.667 221.932 249.218 223.489 245.043L227.897 233.225Z" fill="#111111"/>
<path d="M222.045 233.225C219.4 226.136 226.003 219.078 233.254 221.244L245.794 224.991C250.355 226.354 253.113 230.983 252.14 235.643L251.741 237.551C251.504 238.687 251.054 239.766 250.414 240.734L248.691 243.337C248.333 243.879 247.918 244.381 247.454 244.835L245.722 246.527C245.141 247.095 244.487 247.583 243.778 247.978L240.894 249.585C240.029 250.066 239.092 250.405 238.119 250.587L236.723 250.848C232.344 251.667 228.01 249.218 226.453 245.043L222.045 233.225Z" fill="#111111"/>
</svg>
