<svg xmlns="http://www.w3.org/2000/svg" viewBox="0 0 32 32">
  <!-- Rounded black square background -->
  <rect width="32" height="32" rx="6" fill="#000000"/>
  <!-- White flower logo -->
  <path d="M16 3.33C17.33 3.33 18.4 4.33 18.67 5.67C19.47 5.33 20.27 5.87 20.67 6.93C21.33 7.33 21.87 8.33 21.6 9.67C22.13 10.6 22.13 12.13 21.6 13.07C21.87 14.13 21.33 15.13 20.67 15.53C20.27 16.6 19.47 17.13 18.67 16.8C18.4 18.13 17.33 19.13 16 19.13C14.67 19.13 13.6 18.13 13.33 16.8C12.53 17.13 11.73 16.6 11.33 15.53C10.67 15.13 10.13 14.13 10.4 13.07C9.87 12.13 9.87 10.6 10.4 9.67C10.13 8.6 10.67 7.6 11.33 7.2C11.73 6.13 12.53 5.6 13.33 5.93C13.6 4.6 14.67 3.6 16 3.6ZM16 9.33C14.4 9.33 13.07 10.67 13.07 12.27C13.07 13.87 14.4 15.2 16 15.2C17.6 15.2 18.93 13.87 18.93 12.27C18.93 10.67 17.6 9.33 16 9.33Z" fill="#FFFFFF"/>
</svg>

