<svg xmlns="http://www.w3.org/2000/svg" viewBox="0 0 32 32">
  <!-- Rounded black square background -->
  <rect width="32" height="32" rx="6" fill="#000000"/>
  <!-- White flower logo (scaled from 24x24 to fit in 32x32 with padding) -->
  <g transform="translate(4, 4) scale(1)">
    <path d="M12 2.5C13.5 2.5 14.8 3.5 15.2 4.9C16.6 4.5 18 5.2 18.5 6.6C20 7 20.7 8.5 20.3 9.9C21.4 10.9 21.4 12.6 20.3 13.6C20.7 15 20 16.5 18.6 16.9C18 18.3 16.6 19 15.2 18.6C14.8 20 13.5 21 12 21C10.5 21 9.2 20 8.8 18.6C7.4 19 6 18.3 5.4 16.9C4 16.5 3.3 15 3.7 13.6C2.6 12.6 2.6 10.9 3.7 9.9C3.3 8.5 4 7 5.4 6.6C6 5.2 7.4 4.5 8.8 4.9C9.2 3.5 10.5 2.5 12 2.5ZM12 9C10.3 9 9 10.3 9 12C9 13.7 10.3 15 12 15C13.7 15 15 13.7 15 12C15 10.3 13.7 9 12 9Z" fill="#FFFFFF"/>
  </g>
</svg>
